PathFileType	4	(X/Y/Z)	64_2_101_p1_0-347.trc
DataRate	CameraRate	NumFrames	NumMarkers	Units	OrigDataRate	OrigDataStartFrame	OrigNumFrames
45.0	45.0	6	27	m	45.0	130	348
Frame#	Time	RHip			RKnee			RAnkle			RBigToe			RSmallToe			RHeel			LHip			LKnee			LAnkle			LBigToe			LSmallToe			LHeel			Neck			Head			Nose			RShoulder			RElbow			RWrist			RThumb			RIndex			RPinky			LShoulder			LElbow			LWrist			LThumb			LIndex			LPinky			
		X1	Y1	Z1	X2	Y2	Z2	X3	Y3	Z3	X4	Y4	Z4	X5	Y5	Z5	X6	Y6	Z6	X7	Y7	Z7	X8	Y8	Z8	X9	Y9	Z9	X10	Y10	Z10	X11	Y11	Z11	X12	Y12	Z12	X13	Y13	Z13	X14	Y14	Z14	X15	Y15	Z15	X16	Y16	Z16	X17	Y17	Z17	X18	Y18	Z18	X19	Y19	Z19	X20	Y20	Z20	X21	Y21	Z21	X22	Y22	Z22	X23	Y23	Z23	X24	Y24	Z24	X25	Y25	Z25	X26	Y26	Z26	X27	Y27	Z27	
130	2.888888888888889	0.3452803440848463	0.7141950872690178	0.5284760699457942	0.32600231421982795	0.9695408491660313	0.9297219789817797	0.25328407325931684	1.2306404887864362	1.2864403333517458	0.2882739168409959	1.075516799766073	1.4138226477606082	0.3452899099310273	1.1248896584877925	1.3957515004886671	0.19233005082024937	1.3295152884130945	1.3248349870014735	0.15970112108825057	0.6224511944478224	0.5620887679783328	0.08849791483038741	0.9007637661305891	0.9517879824740275	0.05208324208228097	1.165327994611997	1.2975557815995078	0.12665386687991734	1.0032859225796735	1.4178727300552951	0.05859295147568091	1.0570371372923693	1.4063066734171836	0.04794577735709043	1.2879340813207374	1.313541752172891	0.3596762344187317	0.41287686108541904	0.11439228532920954	0.5313993675283708	0.1447438997639122	-0.014626052840770835	0.47714553876194127	0.23999939873758244	0.1436560161282554	0.49753375110097253	0.4933735483700025	0.11976952828655447	0.5039096254443696	0.6096518489500635	0.35193552284504753	0.4833486072774736	0.4093306015331954	0.3185512725865086	0.4480203644594901	0.2707254850682322	0.24292650064208035	0.49695268559635064	0.2278040431019103	0.25622012317190823	0.507630566271465	0.2438686287432138	0.3316564718680656	0.20326352230230277	0.34354168623035797	0.12421715072337366	0.022367926454827377	0.49470413146291536	0.333905212132858	0.036828653508413745	0.5941414453186893	0.597262480272389	0.08596579101414883	0.6295390889070225	0.6890460455691637	0.057856981539659506	0.6265136176184997	0.7112703102190617	-0.0021401059832154706	0.6718573671416774	0.6933246350034907
131	2.911111111111111	0.3366576654251346	0.7285227607994854	0.5285593585755823	0.3163395688726148	0.9862007663198872	0.9324475531737043	0.2533373475803775	1.2306830715915755	1.2864833855429083	0.2868578517158493	1.0779956414269738	1.4180904013580784	0.34489708486120313	1.1081186236691454	1.3920798469921327	0.19246790851644766	1.3473456613931294	1.3279316012925173	0.15978058872620396	0.6225630651583635	0.5621213854062008	0.08755101359590714	0.8989896010119249	0.9513370968463989	0.05198410030430266	1.1655874392225936	1.2975967704968794	0.12723136599789675	1.004225643304237	1.422317024434582	0.05440937509386754	1.0557247219489143	1.407614584790126	0.03689089362078207	1.3063946690148545	1.3150826394684276	0.3622303728693604	0.41409401322740286	0.11028623338144561	0.5313333124344248	0.14398214682170157	-0.01854567956958634	0.4840578446289816	0.23934643828829932	0.143384075049161	0.49723969014528807	0.49211576670489204	0.11619485083885403	0.5038789259171212	0.6099020789240631	0.3518303439865149	0.4835374730261938	0.40900287511075295	0.31867026324414033	0.4480719492191475	0.27053498907585305	0.24298432498474487	0.49690440942716396	0.22785322993924143	0.2561866946264295	0.5075688645456484	0.24193368411745447	0.3291746164760373	0.20335067921898323	0.34340295845255625	0.12399152000598887	0.022421200695119485	0.4946928131065487	0.33385714922380494	0.04100620385410938	0.5953002920190538	0.5931102522828177	0.08605727150544329	0.6298124531728326	0.6887542740802204	0.05931380216236109	0.6247789928638733	0.7083584593896881	-0.004947193257284504	0.6658962599739304	0.6869521119699123
132	2.933333333333333	0.3526150522503302	0.7050465798302139	0.5377557494919049	0.3163023540141033	0.9677382032070335	0.9311100727856864	0.25385095636732724	1.2445891850624398	1.2814837218325192	0.2884169372052061	1.0488053932565102	1.4142822569820215	0.3442239855516258	1.0961523337958168	1.3920317631528578	0.19190555136449897	1.3467105434741633	1.3242025971175568	0.16719851594780058	0.6147219180042142	0.5703014918763543	0.08756166779565035	0.8992448051161165	0.9513729595905708	0.055704248662980134	1.168725287614084	1.296516458237349	0.12636057615878613	1.0028962966012167	1.4182239984107368	0.05446579003444717	1.0554700187155912	1.407555724873876	0.0506129967548379	1.2951926811646777	1.3083335950830581	0.36728853555978713	0.39979063224331063	0.11291915455194447	0.5342440099966146	0.14406975679879058	-0.022022903452425906	0.4874871097341014	0.2395358325230369	0.13904534576572736	0.49741347113207734	0.5060495407807909	0.11353671890959229	0.5039135009534119	0.6200298981323313	0.34409841789696055	0.4839326830108567	0.40745565289899016	0.31577297655964787	0.4482689216893021	0.27070966396344115	0.24262493303084115	0.5066751772310191	0.2194662799749254	0.2561416082577754	0.5106058290373447	0.2463564155930543	0.3303865476075237	0.20337550552189942	0.34210795910398323	0.12051135568278104	0.022960183222962817	0.4905644249218516	0.32733483024103954	0.03177564178014594	0.60376392681135	0.5869655712386384	0.07756671364671074	0.64086293716987	0.6863917962003465	0.051492839739978015	0.634135916653605	0.7033347940048404	-0.005545901753702049	0.6666916052255293	0.6860077106744009
133	2.9555555555555557	0.3524117074060902	0.7055746132713717	0.5376974767168392	0.31722161109781294	0.9653700922218468	0.9269240575727888	0.25796273015719273	1.2472986772995855	1.2806962060481581	0.28864449551036786	1.061490065089454	1.4139968612597824	0.3447847064452569	1.107974037930672	1.3919773220252993	0.19337109270245598	1.34391724037052	1.318845168533497	0.16782238157274823	0.6131749203796303	0.5672116677633907	0.08761761950437608	0.8990662798464442	0.9511544628207147	0.05562146547444361	1.1686356304560497	1.2962917828959526	0.12722240605293159	1.0035964445044718	1.42221568446908	0.05449621049516335	1.055396583321352	1.4076299688175327	0.041968788536678334	1.3071098876549145	1.3048755509422527	0.3676366690175836	0.40854859635670215	0.105429408227182	0.5351324092807322	0.15267796823658844	-0.027028147049132242	0.4877722643744768	0.2475159273405009	0.1312485375223818	0.4977718318927662	0.5031121964132258	0.11125679838285596	0.5041460681569716	0.6198213756221009	0.34411614691891157	0.4839062386253842	0.40741603211946714	0.31553910590070194	0.45132347075725326	0.27249855066418355	0.24168050029570073	0.5070541728529135	0.21790026815042138	0.2533685361981581	0.5109019875425123	0.24235994848431444	0.32429469789978405	0.2033832178138305	0.3421778485112834	0.12043582943539924	0.02580862814465061	0.491988885381807	0.3227893939351853	0.03187073877521331	0.6036139518134355	0.586867332746313	0.08001173114959549	0.6443843625701875	0.6851643850101355	0.05116154973408338	0.6346182442508901	0.7031258830823995	-0.005422639432539911	0.6665048759423204	0.6859821818562755
134	2.977777777777778	0.35266845513668965	0.7051449110261809	0.5378744073032196	0.3170795914672424	0.9655056290434811	0.9269086899160122	0.258033167284407	1.2298733145461362	1.2768938693954592	0.28786442183279226	1.0630484194929959	1.414301106875844	0.34502052150127926	1.1078265637912201	1.3877600030069301	0.19287980350216705	1.320985580212166	1.311872825546833	0.16800876590914898	0.61291925083895	0.567239840336755	0.0874308555280263	0.8991829037361566	0.951178170160384	0.0520703779407258	1.1650302632995664	1.2971962845900957	0.12722158257939656	1.003842601667423	1.4223932199721667	0.054447802391512604	1.055490672052313	1.4078706444059936	0.04773931086731701	1.2829697722900886	1.3107459236056649	0.3705637928340352	0.4075072436755412	0.09778664709878933	0.5352134237387035	0.15229772597971314	-0.027792509620779917	0.49460427724149486	0.24270458803601452	0.12546970039542407	0.5017739473731858	0.5051320450837556	0.10981943989620875	0.5042426814701023	0.6168867656021415	0.3416122571874823	0.4837485193485248	0.4047923152596521	0.31230662900984524	0.451521521714724	0.2723737582875452	0.2415765381578508	0.5037116949051971	0.2158612499252713	0.25421649958923626	0.508061255609155	0.24008884682543105	0.3252209539966019	0.20363424056179044	0.33968509022439125	0.11779764104365038	0.025944262100748152	0.49181397802230514	0.32262886926763146	0.041396436425083824	0.5918079063512377	0.5892889377465006	0.0809712313978616	0.6426892426616531	0.6813217432772524	0.055605732645766306	0.6340976065114716	0.6992199274006266	-0.00524846056080026	0.6659802253317431	0.6858670206223375
135	3.0	0.3528918672932051	0.7197993685694807	0.5342409655750552	0.3172129414025131	0.9798661625738297	0.924653017640121	0.25388504297973036	1.244772928569879	1.2814650601259756	0.2886477971228479	1.0608187153031974	1.4139696590036275	0.34483312132623845	1.1076799987335821	1.3919943722134989	0.1932877215250059	1.3444962736603419	1.318906780582037	0.17254793080185435	0.6132134696016128	0.5633290016234195	0.0883745064313356	0.8977001804776388	0.9475069157382242	0.054120442111467486	1.1635828303852198	1.2965413736352802	0.1274116216252467	1.0038630175392589	1.422229946165394	0.05459809973019963	1.0555087389592905	1.4073937690454184	0.049277774730500545	1.281015085945276	1.3051994860719953	0.3775051982196308	0.3942285669346336	0.09719098829824954	0.5351478367588358	0.1482683070209155	-0.03666040983008593	0.49495594397622933	0.24566390736385663	0.1047360304969007	0.502184422506854	0.5135366067971672	0.10223490786070791	0.5044112885908258	0.6149730189111127	0.3379699652506382	0.4837300747921168	0.4021812113068788	0.3061500858917905	0.45851715595387216	0.2691667024696665	0.23544892502539883	0.5106220445112694	0.2193148404116818	0.2518015041812731	0.5101561654929114	0.23864182274564585	0.32028738533436846	0.20427096265507508	0.33757825337698644	0.11474287029474332	0.026304337345847632	0.4913763381549828	0.32245875594762946	0.05081919300155721	0.5802440482284001	0.5915142406733811	0.08134533086329977	0.643738085705806	0.6802391780657547	0.05507263713009749	0.6303509964020793	0.6918987395830488	-0.006643404054559768	0.6776529546367905	0.6788849934943474
